# xmcd
#
# Track frame offsets:
#	150
#	28181
#	41590
#	69946
#	93379
#	117059
#	140762
#	164475
#	181920
#	198106
#	213369
#	241247
#	257336
#	275236
#	299295
#	323853
#
# Disc length: 4715 seconds
#
# Revision: 0
# Processed by: cddbd v1.5.2PL0 Copyright (c) Steve Scherf et al.
# Submitted via: dBpowerAMP V4.0
#
DISCID=ea126910
DTITLE=ALBERTO CORTEZ - SINFONICO
DYEAR=2011
DGENRE=Latin
TTITLE0=OBERTURA
TTITLE1=YO NO QUIERO LLAMARME COMO ME LLAMO
TTITLE2=NANAS DE LA CEBOLLA
TTITLE3=LA VEJEZ
TTITLE4=QUE MARAVILLA
TTITLE5=DE AYER A HOY
TTITLE6=A MODO DE RESPONSO
TTITLE7=COMO EL PRIMER DIA
TTITLE8=EN UN RINCON DEL ALMA
TTITLE9=CALLEJERO
TTITLE10=LA CAJA DE LOS VIENTOS
TTITLE11=MI ARBOL Y YO
TTITLE12=EL AMOR DESOLADO
TTITLE13=CAMINA SIEMPRE ADELANTE
TTITLE14=CASTILLOS EN EL AIRE
TTITLE15=CUANDO UN AMIGO SE VA
EXTD=ttras
EXTT0=
EXTT1=
EXTT2=
EXTT3=
EXTT4=
EXTT5=
EXTT6=
EXTT7=
EXTT8=
EXTT9=
EXTT10=
EXTT11=
EXTT12=
EXTT13=
EXTT14=
EXTT15=
PLAYORDER=
